<?xml version="1.0" encoding="UTF-8"?><svg id="b" xmlns="http://www.w3.org/2000/svg" width="240.36" height="361.58" xmlns:xlink="http://www.w3.org/1999/xlink" viewBox="0 0 240.36 361.58"><defs><style>.h{stroke-width:.12px;}.h,.i,.j,.k,.l,.m{fill:none;}.h,.j,.l,.m{stroke:#905500;}.n{fill:#d2a808;}.i{stroke:#d2a808;}.i,.j{stroke-linecap:round;stroke-linejoin:round;}.i,.j,.m{stroke-width:.36px;}.o{clip-path:url(#f);}.p{fill:#61116c;}.q{fill:#231f20;}.r{clip-path:url(#g);}.k{clip-rule:evenodd;}.s{fill:#905500;}.t{clip-path:url(#d);}.u{clip-path:url(#e);}.l{stroke-width:.24px;}.v{fill:#007e3d;}.w{fill:#ffdc01;}</style><clipPath id="d"><polygon class="k" points="175.15 210.4 174.91 210.89 174.67 211.37 174.42 212.1 170.06 220.83 169.82 221.56 165.45 230.29 165.21 231.02 161.33 238.78 161.08 239.51 160.84 241.45 160.6 243.15 160.36 245.09 160.11 246.79 159.87 248.73 159.63 250.43 159.39 252.37 159.14 254.07 158.9 256.01 158.9 257.7 159.63 257.7 160.11 257.95 160.84 258.19 161.33 258.43 162.05 258.67 162.54 258.92 163.27 259.16 164.24 259.64 164.97 259.89 165.45 260.13 166.18 260.37 166.66 260.61 166.66 260.37 181.7 245.33 181.94 244.85 182.67 244.12 182.91 243.64 183.4 242.18 183.64 241.69 184.85 238.06 185.1 237.57 186.31 233.93 186.55 233.45 188.01 229.08 188.25 228.6 189.46 224.96 189.71 224.47 190.92 220.83 191.16 220.35 191.65 218.89 191.89 218.65 191.65 218.41 175.64 210.4 175.15 210.4"/></clipPath><clipPath id="e"><polygon class="k" points="131.98 230.54 131.73 234.18 131.25 241.45 131.73 241.94 132.22 242.18 132.46 242.42 132.95 242.66 133.19 242.91 133.68 243.15 133.92 243.39 134.4 243.64 134.89 244.12 135.37 244.36 135.62 244.61 136.1 244.85 136.34 245.09 136.83 245.33 137.07 245.58 137.56 245.82 137.8 246.06 138.28 246.3 138.77 246.79 139.25 247.03 139.5 247.27 139.98 247.52 140.22 247.76 140.71 248 140.95 248.24 141.44 248.49 141.92 248.97 142.41 249.21 142.65 249.46 143.13 249.7 143.38 249.94 143.86 250.18 144.11 250.43 144.59 250.67 144.83 250.91 145.32 251.15 145.8 251.64 146.29 251.88 146.53 252.12 147.02 252.37 147.26 252.61 147.74 252.85 147.99 253.09 148.47 253.34 148.71 253.58 149.2 253.82 149.68 254.31 150.17 254.55 150.17 254.31 154.78 249.7 155.02 249.21 155.75 248.49 155.99 248 155.51 247.76 155.02 247.27 154.54 247.03 154.05 246.55 153.56 246.3 153.32 246.06 152.84 245.82 152.35 245.33 151.87 245.09 151.38 244.61 150.9 244.36 150.41 243.88 149.93 243.64 149.44 243.15 148.96 242.91 148.71 242.66 148.23 242.42 147.74 241.94 147.26 241.69 146.77 241.21 146.29 240.97 145.8 240.48 145.32 240.24 144.83 239.75 144.35 239.51 144.11 239.27 143.62 239.03 143.13 238.54 142.65 238.3 142.16 237.81 141.68 237.57 141.19 237.09 140.71 236.84 140.22 236.36 139.74 236.12 139.5 235.87 139.01 235.63 138.53 235.15 138.04 234.9 137.56 234.42 137.07 234.18 136.59 233.69 136.1 233.45 135.62 232.96 135.13 232.72 134.89 232.48 134.4 232.23 133.92 231.75 133.43 231.51 132.95 231.02 132.46 230.78 132.22 230.54 131.98 230.54"/></clipPath><clipPath id="f"><polygon class="k" points="155.26 259.16 155.02 259.64 154.78 259.89 154.29 260.86 154.05 261.1 153.81 261.58 153.56 261.83 153.32 262.31 153.08 262.55 152.84 263.04 152.59 263.28 152.35 263.77 152.11 264.01 151.62 264.98 151.38 265.22 151.14 265.71 150.9 265.95 150.65 266.44 150.41 266.68 150.17 267.16 149.93 267.41 149.68 267.89 149.44 268.13 148.96 269.1 148.71 269.35 148.47 269.83 148.23 270.07 147.99 270.56 147.74 270.8 147.5 271.29 147.26 271.53 147.02 272.01 146.77 272.26 146.29 273.23 146.05 273.47 145.8 273.95 145.56 274.2 145.32 274.68 145.08 274.93 144.83 275.41 144.59 275.65 144.35 276.14 144.11 276.38 143.62 277.35 143.38 277.59 143.13 278.08 142.89 278.32 142.65 278.81 142.41 279.05 142.16 279.53 141.92 279.78 141.68 280.75 141.44 281.47 141.19 282.44 140.95 283.17 140.71 284.14 140.47 284.87 140.22 285.84 139.98 286.57 139.74 287.54 139.5 288.27 139.25 289.24 139.01 289.96 138.77 290.93 138.53 291.66 138.28 292.63 137.8 294.09 137.56 295.06 137.56 296.03 137.8 296.03 139.98 298.21 140.95 298.45 140.95 298.21 142.16 297.97 145.08 297.24 145.56 296.76 145.8 296.27 146.29 295.79 146.53 295.3 146.77 295.06 147.02 294.57 147.5 294.09 147.74 293.6 148.23 293.12 148.47 292.63 148.96 292.15 149.2 291.66 149.44 291.42 149.68 290.93 150.17 290.45 150.41 289.96 150.9 289.48 151.14 288.99 151.38 288.75 151.62 288.27 152.11 287.78 152.35 287.3 152.84 286.81 153.08 286.33 153.32 286.08 154.54 283.66 154.78 282.93 155.51 281.47 155.75 280.75 156.72 278.81 156.96 278.08 157.69 276.62 157.93 275.9 158.66 274.44 158.9 273.71 159.87 271.77 160.11 271.04 160.84 269.59 161.08 268.86 161.81 267.41 162.05 266.68 163.02 264.74 163.27 264.5 163.02 264.25 162.54 264.01 162.3 263.77 161.81 263.52 161.57 263.28 161.08 263.04 160.84 262.8 160.36 262.55 160.11 262.31 159.63 262.07 159.14 261.58 158.66 261.34 158.42 261.1 157.93 260.86 157.69 260.61 157.2 260.37 156.96 260.13 156.48 259.89 156.23 259.64 155.75 259.4 155.51 259.16 155.26 259.16"/></clipPath><clipPath id="g"><polygon class="k" points="157.69 249.94 156.96 250.18 156.23 250.43 154.78 251.15 153.81 252.12 153.32 252.37 152.35 253.34 152.11 253.82 151.38 254.55 151.14 255.04 150.65 255.28 148.96 255.52 148.71 255.76 148.47 257.46 148.47 259.4 148.71 259.4 149.2 259.64 149.68 260.13 150.17 260.37 150.41 260.61 150.9 260.86 151.38 261.34 151.87 261.58 152.35 262.07 152.84 262.31 153.08 262.55 153.56 262.8 154.05 263.28 154.54 263.52 155.02 264.01 155.51 264.25 155.99 264.74 156.48 264.98 156.72 265.22 157.2 265.47 157.69 265.95 158.17 266.19 158.66 266.68 159.14 266.92 159.39 267.16 159.87 267.41 160.36 267.89 160.84 268.13 161.33 268.62 161.81 268.86 162.05 269.1 162.54 269.35 163.02 269.83 163.51 270.07 163.99 270.56 164.48 270.8 164.72 271.04 165.21 271.29 165.69 271.77 166.18 272.01 166.66 272.5 167.15 272.74 167.39 272.98 167.88 273.23 168.36 273.71 168.85 273.95 169.33 274.44 169.82 274.68 170.06 274.93 170.54 275.17 171.03 275.65 171.51 275.9 172 276.38 172.48 276.62 172.73 276.87 173.21 277.11 173.7 277.59 174.18 277.84 174.67 278.32 175.15 278.56 175.4 278.81 175.88 279.05 176.37 279.53 176.85 279.78 177.34 280.26 177.82 280.5 178.06 280.75 178.55 280.99 179.03 281.47 179.52 281.72 180 282.2 180.49 282.44 180.73 282.69 181.22 282.93 181.7 283.41 182.19 283.66 182.67 284.14 183.16 284.38 183.4 284.63 183.88 284.87 184.37 285.36 184.85 285.6 185.34 286.08 185.83 286.33 186.31 286.81 186.8 287.05 187.04 287.3 188.01 287.78 188.01 287.54 188.49 287.05 188.74 286.57 192.86 282.44 190.68 280.26 190.43 280.26 190.43 279.78 186.31 275.65 186.07 275.65 186.07 275.17 182.19 271.29 181.94 271.29 181.94 270.8 177.82 266.68 177.58 266.68 177.58 266.19 173.7 262.31 173.45 262.31 173.45 261.83 169.33 257.7 169.09 257.7 169.09 257.22 167.39 255.52 166.91 255.28 166.66 255.04 166.18 254.79 165.94 254.55 164.97 254.07 164.72 253.82 163.75 253.34 163.51 253.09 163.02 252.85 162.78 252.61 161.81 252.12 161.57 251.88 160.11 251.15 159.87 250.91 157.93 249.94 157.69 249.94"/></clipPath></defs><g id="c"><path class="w" d="M39.41,282.41s3.15-1.46,3.15-19.92c0,0-3.64-16.27-12.39-11.9,0,0-7.29,9.72-18.95,8.75l-1.94.97s19.43,7.05,5.09,30.11l6.56,3.41,6.56-3.9,6.79-6.55s2.18,1.94,5.11-.97Z"/><path class="m" d="M39.41,282.41s3.15-1.46,3.15-19.92c0,0-3.64-16.27-12.39-11.9,0,0-7.29,9.72-18.95,8.75l-1.94.97s19.43,7.05,5.09,30.11l6.56,3.41,6.56-3.9,6.79-6.55s2.18,1.94,5.11-.97Z"/><path class="v" d="M29.69,251.08s15.78,6.08,4.61,31.34l-14.81,7.52s11.17-17.72-2.68-29.62c0,0,9.23-1.94,12.89-9.23Z"/><path class="p" d="M31.88,279.99s3.15.49,5.09,2.43c0,0,.99,1.46,2.44,0,0,0-6.08,6.06-14.58,8l2.44-5.09,4.61-5.34Z"/><path class="p" d="M22.16,251.81s5.11.74,8.02-1.21c0,0,.24,7.53-2.43,7.53,0,0-8.26.49-5.59-6.32Z"/><path class="w" d="M27.75,258.13s-6.32-1.21-5.84-10.69c0,0,0-6.06,8.26-10.2,0,0,7.78-4.12,7.78-15.54,0,0,.49-5.09-3.65-10.2,0,0-1.46-1.94.73-4.12,0,0,3.9-4.12-1.21-8,0,0,2.18,2.67-1.21,6.06,0,0-6.32,3.64-2.91,13.36,0,0,1.94,5.58-6.81,11.17,0,0,6.08-9.23,0-21.62,0,0-3.4-6.55,6.81-16.75,0,0-12.14,6.79-12.14,17.24,0,0,0,4.38.49,6.56,0,0,1.94,5.34-8.75,17.48,0,0-12.4,11.42-8.26,23.07,0,0,3.64,11.9,26.73,2.18Z"/><path class="m" d="M27.75,258.13s-6.32-1.21-5.84-10.69c0,0,0-6.06,8.26-10.2,0,0,7.78-4.12,7.78-15.54,0,0,.49-5.09-3.65-10.2,0,0-1.46-1.94.73-4.12,0,0,3.9-4.12-1.21-8,0,0,2.18,2.67-1.21,6.06,0,0-6.32,3.64-2.91,13.36,0,0,1.94,5.58-6.81,11.17,0,0,6.08-9.23,0-21.62,0,0-3.4-6.55,6.81-16.75,0,0-12.14,6.79-12.14,17.24,0,0,0,4.38.49,6.56,0,0,1.94,5.34-8.75,17.48,0,0-12.4,11.42-8.26,23.07,0,0,3.64,11.9,26.73,2.18Z"/><path class="v" d="M20.95,210.77s5.82,10.93-4.38,23.07c0,0,20.41-.73,15.55-20.15,0,0,8.02,12.63-4.37,20.88,0,0-18.22,11.66-4.62,25.26,0,0-8.26,3.4-15.78,1.46,0,0-8.26-9.47-.26-20.39,0,0,17.49-18.95,13.86-30.12Z"/><path class="w" d="M200.95,282.41s-3.15-1.46-3.15-19.92c0,0,3.64-16.27,12.39-11.9,0,0,7.29,9.72,18.95,8.75l1.94.97s-19.44,7.05-5.09,30.11l-6.56,3.41-6.56-3.9-6.79-6.55s-2.2,1.94-5.11-.97Z"/><path class="m" d="M200.95,282.41s-3.15-1.46-3.15-19.92c0,0,3.64-16.27,12.39-11.9,0,0,7.29,9.72,18.95,8.75l1.94.97s-19.44,7.05-5.09,30.11l-6.56,3.41-6.56-3.9-6.79-6.55s-2.2,1.94-5.11-.97Z"/><path class="v" d="M210.67,251.08s-15.8,6.08-4.61,31.34l14.81,7.52s-11.17-17.72,2.67-29.62c0,0-9.23-1.94-12.87-9.23Z"/><path class="p" d="M208.49,279.99s-3.17.49-5.11,2.43c0,0-.97,1.46-2.43,0,0,0,6.08,6.06,14.58,8l-2.44-5.09-4.61-5.34Z"/><path class="p" d="M218.21,251.81s-5.11.74-8.02-1.21c0,0-.24,7.53,2.43,7.53,0,0,8.26.49,5.59-6.32Z"/><path class="w" d="M212.61,258.13s6.32-1.21,5.84-10.69c0,0,0-6.06-8.26-10.2,0,0-7.78-4.12-7.78-15.54,0,0-.49-5.09,3.41-10.2,0,0,1.7-1.94-.5-4.12,0,0-3.88-4.12,1.23-8,0,0-2.2,2.67,1.21,6.06,0,0,6.31,3.64,2.91,13.36,0,0-1.94,5.58,6.81,11.17,0,0-6.08-9.23,0-21.62,0,0,3.4-6.55-6.81-16.75,0,0,12.14,6.79,12.14,17.24,0,0,0,4.38-.49,6.56,0,0-1.94,5.34,8.75,17.48,0,0,12.39,11.42,8.26,23.07,0,0-3.64,11.9-26.73,2.18Z"/><path class="m" d="M212.61,258.13s6.32-1.21,5.84-10.69c0,0,0-6.06-8.26-10.2,0,0-7.78-4.12-7.78-15.54,0,0-.49-5.09,3.41-10.2,0,0,1.7-1.94-.5-4.12,0,0-3.88-4.12,1.23-8,0,0-2.2,2.67,1.21,6.06,0,0,6.31,3.64,2.91,13.36,0,0-1.94,5.58,6.81,11.17,0,0-6.08-9.23,0-21.62,0,0,3.4-6.55-6.81-16.75,0,0,12.14,6.79,12.14,17.24,0,0,0,4.38-.49,6.56,0,0-1.94,5.34,8.75,17.48,0,0,12.39,11.42,8.26,23.07,0,0-3.64,11.9-26.73,2.18Z"/><path class="v" d="M219.42,210.77s-6.08,10.93,4.37,23.07c0,0-20.41-.73-15.54-20.15,0,0-8.02,12.63,4.37,20.88,0,0,18.22,11.66,4.62,25.26,0,0,8.26,3.4,15.78,1.46,0,0,8.26-9.47.24-20.39,0,0-17.48-18.95-13.84-30.12Z"/><path class="s" d="M11.47,289.45s8.99,1.21,14.81-6.06l2.44,1.21s-.97,5.82-1.21,6.31c-.24.24-3.65,2.93-4.14,2.93-.24,0-4.61.73-5.58.73h-7.29l.97-5.11Z"/><path class="w" d="M67.84,126.99l4.12,1.94,41.05-73.09,6.32-9.23.73-33.5s-52.23,1.7-52.23,113.88ZM120.06,13.11l.97,33.5,6.32,9.23,41.05,73.09,4.12-1.94c0-112.18-52.47-113.88-52.47-113.88Z"/><path class="l" d="M67.84,126.99l4.12,1.94,41.05-73.09,6.32-9.23.73-33.5s-52.23,1.7-52.23,113.88M120.06,13.11l.97,33.5,6.32,9.23,41.05,73.09,4.12-1.94c0-112.18-52.47-113.88-52.47-113.88Z"/><path class="s" d="M111.31,41.04l2.43-.97.73-2.68-20.41-23.06h-.24l-8.5.73.24,8.73,25.76,17.25ZM113.25,50.74l.24-.24s-.97-.49-1.21-.73c0-.24-.49-2.67-.49-2.67l-.73.73c-.24-.24-.49-.49-.49-.49,0,0-.24-.49-.24-.73,0,0-.24-1.21-.24-1.46s.49-1.46.49-1.46l-.73.24.24-1.7.24-1.94-32.79-12.14-.24.24-7.53,5.09,3.15,8.26,35.72,2.18-44.95,5.34-5.58,9.23,6.31,8.02,40.33-17.49-50.29,28.89-3.15,10.45,7.05,6.81,44.93-39.1-55.86,58.52v12.87l8.73,1.7,57.09-78.19-.24.24-64.13,99.33,3.4,13.84,15.55-8.75,49.32-103.19-1.23-1.47-2.67-.24ZM141.68,12.39l-2.91-7.78h-.49l-7.53,2.18-7.05,19.68,2.68-20.89-6.32-5.58-.24.24-5.84,5.34,2.68,20.89-7.05-19.68-8.02-2.18-.24.49-2.67,7.29,16.99,24.51h2.68l.73-.97.97.49,1.21-.49.73.97h2.43l17.25-24.51ZM192.94,127.48v-12.87l-55.86-58.52,44.93,39.1,6.81-6.81-2.91-10.45-50.54-28.89,40.58,17.49,6.31-8.02-5.58-9.23-44.95-5.34,35.72-2.18,3.15-8.26-7.78-5.34-.49.24-32.31,11.9.24,1.94.24,1.21v.49l-.73-.24.49,1.21v.24c0,.24-.24,1.46-.24,1.46,0,0-.24.49-.24.73,0,0-.24.24-.49.49l-.73-.73-.24,1.21s-.24,1.21-.24,1.46c-.24.24-1.21.73-1.21.73l.24.24-.24.24h-2.44l-1.21,1.47,49.32,103.19,15.55,8.75,3.4-13.84L127.11,50.98l57.08,78.19,8.75-1.7ZM126.63,40.07l2.43.97,25.74-17.25.24-8.73-8.73-.73-.24.24-20.18,22.82.74,2.68Z"/><path class="s" d="M203.87,170.46c-8.5,1.21-14.33-4.12-14.33-4.37-15.55-12.39-25.27-11.17-27.45-10.45-3.64-9.46-15.05-14.57-21.38-16.27-14.57-4.37-20.16-8.75-20.16-8.75l-.49-.49-.24.49s-5.59,4.38-20.16,8.75c-6.32,1.7-17.74,6.81-21.38,16.27-2.2-.73-11.92-1.94-27.45,10.45,0,.24-5.84,5.58-14.34,4.37h-.73v.73c.49,10.2,4.38,99.81,4.38,100.06,0,1.21,1.21,31.32,24.77,38.85,32.56,10.2,51.51,17.48,54.91,20.88l.24.49.49-.49c3.4-3.4,22.35-10.67,54.89-20.88,23.33-7.53,24.79-37.64,24.79-38.85,0-.24,3.88-89.85,4.37-100.06v-.73h-.73Z"/><path class="w" d="M189.05,166.58c-17.25-13.84-27.45-10.2-27.45-10.2-2.91-8.73-13.6-14.57-21.13-16.51-14.83-4.37-20.16-8.75-20.41-8.99,0,.24-5.35,4.62-20.41,8.99-7.29,1.94-17.98,7.78-20.89,16.51,0,0-10.2-3.64-27.45,10.2,0,0-6.08,5.84-15.07,4.61,0,0,4.38,99.81,4.38,100.06.24,2.18,1.7,31.08,24.53,38.13,25.76,8.25,51.01,16.99,54.91,21.12,4.12-4.12,29.4-12.87,55.14-21.12,22.85-7.05,24.3-35.94,24.54-38.13,0-.24,4.12-100.06,4.12-100.06-8.75,1.23-14.81-4.61-14.81-4.61Z"/><path class="p" d="M180.31,167.79c-13.11-11.9-23.32-4.37-23.32-4.37,2.43-12.87-17.98-17.96-17.98-17.96-16.52-5.35-18.71-8.5-18.95-8.5,0,0-2.18,3.15-18.71,8.5,0,0-20.41,5.09-17.98,17.96,0,0-10.2-7.53-23.32,4.37,0,0-8.5,7.29-17.01,6.56l77.01,53.91,77.25-53.91c-8.5.73-17.01-6.56-17.01-6.56ZM45.96,271s.73,26.71,20.65,32.78c0,0,39.11,11.9,51.03,19.92v-91.07c-1.71-.97-54.18-37.64-76.53-53.18l4.85,91.55ZM122.73,232.63v91.07c11.9-8.02,51.01-19.92,51.01-19.92,19.92-6.06,20.65-32.78,20.65-32.78l4.87-91.55c-22.35,15.54-74.83,52.21-76.53,53.18Z"/><polygon class="w" points="52.77 163.42 67.35 155.16 116.42 52.7 115.44 51.71 80.22 105.39 52.77 163.42"/><polygon class="n" points="113.5 51.47 49.61 150.55 52.77 163.42 115.44 51.71 113.5 51.47"/><polygon class="w" points="48.16 126.99 55.92 128.45 112.53 50.74 111.8 50.26 86.79 75.03 48.16 126.99"/><polygon class="n" points="111.56 48.56 48.16 114.85 48.16 126.99 111.8 50.26 111.56 48.56"/><polygon class="w" points="52.04 88.14 58.36 94.46 111.07 48.56 109.86 47.59 82.4 64.58 52.04 88.14"/><polygon class="n" points="109.86 46.86 54.95 78.42 52.04 88.14 109.86 47.59 109.86 46.86"/><polygon class="w" points="70.5 33.75 73.41 41.28 109.37 43.46 109.37 42.25 91.64 35.93 70.5 33.75"/><polygon class="n" points="109.62 40.8 77.8 28.89 70.5 33.75 109.37 42.25 109.62 40.8"/><polygon class="w" points="58.85 58.52 64.67 65.81 109.62 46.13 109.37 44.92 82.65 49.77 58.85 58.52"/><polygon class="n" points="109.62 44.43 64.18 49.77 58.85 58.52 109.37 44.92 109.62 44.43"/><polygon class="n" points="120.06 .73 114.71 5.82 118.61 34.96 120.06 35.69 120.06 .73"/><polygon class="w" points="120.06 .73 125.64 5.82 121.76 34.96 120.06 35.69 120.06 .73"/><polygon class="n" points="101.84 5.34 99.41 12.39 116.17 36.41 118.12 36.41 101.84 5.34"/><polygon class="w" points="101.84 5.34 109.13 7.28 119.09 34.96 118.12 36.41 101.84 5.34"/><polygon class="w" points="86.04 15.78 86.29 23.54 111.56 40.31 113.25 39.58 86.04 15.78"/><polygon class="n" points="86.04 15.78 93.82 14.81 113.74 37.63 113.25 39.58 86.04 15.78"/><polygon class="w" points="187.6 163.42 173.02 155.16 123.94 52.7 124.91 51.71 160.14 105.39 187.6 163.42"/><polygon class="n" points="126.87 51.47 190.75 150.55 187.6 163.42 124.91 51.71 126.87 51.47"/><polygon class="w" points="192.21 126.99 184.43 128.45 127.84 50.74 128.57 50.26 153.58 75.03 192.21 126.99"/><polygon class="n" points="128.81 48.56 192.21 114.85 192.21 126.99 128.57 50.26 128.81 48.56"/><polygon class="w" points="188.33 88.14 182 94.46 129.29 48.56 130.51 47.59 157.96 64.58 188.33 88.14"/><polygon class="n" points="130.51 46.86 185.4 78.42 188.33 88.14 130.51 47.59 130.51 46.86"/><polygon class="w" points="169.86 33.75 166.95 41.28 130.99 43.46 130.99 42.25 148.49 35.93 169.86 33.75"/><polygon class="n" points="130.75 40.8 162.57 28.89 169.86 33.75 130.99 42.25 130.75 40.8"/><polygon class="w" points="181.52 58.52 175.7 65.81 130.75 46.13 130.99 44.92 157.72 49.77 181.52 58.52"/><polygon class="n" points="130.75 44.43 176.18 49.77 181.52 58.52 130.99 44.92 130.75 44.43"/><polygon class="n" points="138.28 5.34 140.95 12.39 124.18 36.41 122.24 36.41 138.28 5.34"/><polygon class="w" points="138.28 5.34 130.99 7.28 121.27 34.96 122.24 36.41 138.28 5.34"/><polygon class="w" points="154.31 15.78 154.07 23.54 128.81 40.31 127.11 39.58 154.31 15.78"/><polygon class="n" points="154.31 15.78 146.55 14.81 126.63 37.63 127.11 39.58 154.31 15.78"/><path class="s" d="M132.45,43.22c0,6.79-5.58,12.14-12.39,12.14s-12.14-5.35-12.14-12.14,5.58-12.14,12.14-12.14,12.39,5.34,12.39,12.14Z"/><path class="w" d="M131.96,43.22c0,6.55-5.34,11.66-11.9,11.66s-11.66-5.11-11.66-11.66,5.34-11.66,11.66-11.66,11.9,5.09,11.9,11.66Z"/><path class="n" d="M127.11,33.75c1.7,2.18,2.67,4.87,2.67,7.78,0,6.55-5.35,12.14-12.14,12.14-1.47,0-2.68-.24-3.9-.49,1.94.97,4.14,1.7,6.32,1.7,6.56,0,11.9-5.11,11.9-11.66,0-3.88-1.94-7.29-4.85-9.47Z"/><path class="q" d="M149.21,109.27s0-3.15-1.7-5.59c0,0-5.11-8.73-18.22-8.25,0,0-14.34,0-14.34,13.6,0,0-.24,8.49,8.5,8.49,0,0,8.5.24,8.5-8.49,0,0,0-2.43-1.7-3.4,0,0,9.47-2.2,9.47,5.09,0,0,0,10.69-15.8,10.69,0,0-16.75.24-16.75-15.54,0,0,0-3.17,1.7-6.56.73-1.21,1.46-2.43,2.67-3.64l.73-.73c.24-.24.49-.49.73-.49q0-.24.24-.24c0-.24.24-.24.49-.49,0,0,.24,0,.24-.24.24,0,.49-.24.73-.24l.24-.24c.24,0,.49-.24.73-.24l.24-.24c.24,0,.5-.24.74-.24s.24,0,.49-.24c.24,0,.49,0,.73-.26h.49c.24,0,.49-.24.73-.24h.49c.24-.24.49-.24.73-.24h.73c.24,0,.49-.24.97-.24h2.67c2.68,0,11.67.24,18.22,4.14-4.12-15.78-20.41-20.41-20.41-20.41,0,0,4.62-3.15,10.93-1.46-3.4-10.93-11.17-12.63-11.17-12.63,2.91-14.08-2.18-16.75-2.18-16.75l.24.24s-.24,0-.24-.24c0,.49.24,6.55-1.46,12.14-1.21,2.91-2.68,5.34-5.35,6.31,0,0,6.56,1.46,9.96,6.08-12.87.73-16.75,8.97-16.75,8.97,0,0,11.66,0,15.3,6.81-25.76.97-28.67,18.69-28.67,18.69-.97,4.87-.49,8.75.73,11.66,0,0,4.14,15.78,26.97,15.78,0,0,29.15.97,28.42-21.12Z"/><path class="s" d="M119.58,43.95v.97c0,1.7-.24,6.55-1.7,10.93-.97,3.15-2.68,5.34-4.87,6.06l-1.94.73,1.94.49c.24,0,5.59,1.21,8.99,4.87-12.14,1.21-16.04,8.97-16.04,9.22l-.49.97h.99s10.2,0,14.33,5.59c-25.03,1.46-28.18,18.93-28.18,19.18-.49,1.7-.49,3.17-.49,4.87,0,2.43.24,4.85,1.21,7.03,0,0,4.38,16.02,27.45,16.02.73,0,15.8.49,24.04-7.52,3.17-3.4,5.11-7.78,5.11-13.11,0-.49,0-.73-.24-.97,0-.24,0-3.4-1.7-6.08-.24-.24-5.59-8.97-18.71-8.25-.24,0-15.07.24-15.07,14.08,0,.24,0,4.12,2.44,6.79,1.7,1.46,3.88,2.43,6.79,2.43,0,0,3.9,0,6.56-2.67,1.7-1.46,2.43-3.64,2.43-6.55,0,0,0-1.7-.97-2.91,1.7-.24,4.37-.24,6.08.97.97.97,1.46,1.94,1.46,3.64,0,0,0,3.4-2.67,6.06s-6.81,4.14-12.4,4.14c-.24,0-7.78,0-12.39-4.62-2.43-2.67-3.88-6.06-3.88-10.43,0,0,.24-2.93,1.7-6.32.73-1.21,1.7-2.43,2.67-3.4v-.24l.49-.49h.24v-.24l.49-.24.24-.24.49-.49h.49l.49-.49.24-.24.73-.24.24-.24.74-.24h.49l.49-.24.49-.24h.73l.24-.24h1.21l.24-.26h1.7l1.46-.24h.73c2.68,0,11.67.5,17.74,4.14l1.46.73-.49-1.46c-3.4-13.36-15.3-18.71-19.43-20.16,1.7-.97,5.11-1.94,9.23-.97l1.21.24-.49-.97c-2.91-9.47-8.99-12.14-10.93-12.87.49-2.91.73-5.34.73-7.28,0-7.78-3.15-9.23-3.15-9.47l-1.46-.49s.24.73.49.97ZM119.09,56.33c1.46-4.37,1.7-8.75,1.7-10.93.73.97,1.7,3.15,1.7,7.53,0,1.94-.24,4.61-.73,7.76l-.24.49.73.24c.24,0,6.81,1.46,10.2,10.93-6.06-.97-10.2,1.94-10.2,1.94l-1.21.73,1.46.49s14.83,4.38,19.19,18.46c-6.32-3.17-14.57-3.65-17.01-3.65h-.73l-1.7.24h-1.7l-.24.24h-.73l-.49.24h-.97l-.49.24-.73.24-.49.24-.74.26-.24.24-.73.24-.49.24-.49.24-.24.24-.73.49-.24.24-.49.49h-.24l-.73.73c-.97,1.21-1.94,2.43-2.67,3.88-1.7,3.4-1.94,6.81-1.94,6.81,0,4.61,1.46,8.49,4.12,11.16,5.09,5.11,12.87,5.11,13.36,5.11,5.84,0,10.2-1.46,13.13-4.38,3.15-3.15,3.15-7.03,3.15-7.03,0-1.94-.49-3.4-1.94-4.61-2.93-2.2-8.02-1.23-8.26-1.23l-1.46.5,1.21.73c1.46.97,1.46,2.91,1.46,2.91,0,2.43-.73,4.37-1.94,5.82-2.43,2.18-5.84,2.18-5.84,2.18-2.43,0-4.37-.73-5.82-2.18-2.2-2.18-2.2-5.82-2.2-5.82,0-12.63,13.37-12.87,13.86-12.87,12.39-.49,17.49,7.76,17.74,7.76,1.46,2.2,1.46,5.35,1.46,5.35.24,5.34-1.21,9.72-4.62,13.11-7.76,7.76-22.83,7.28-23.07,7.28-22.1,0-26.24-14.57-26.24-15.3-.97-1.94-1.21-4.12-1.21-6.55,0-1.46,0-3.17.49-4.62,0-.73,2.93-17.24,27.94-18.21l.97-.24-.24-.73c-3.4-6.08-11.9-7.05-15.05-7.05,1.46-2.18,5.82-7.28,15.78-7.76h.97l-.49-.97c-2.43-3.65-6.55-5.35-8.99-5.84,1.96-1.21,3.41-3.4,4.38-6.06ZM149.7,109.27h.24-.24Z"/><path class="w" d="M147.52,103.68s-5.11-8.73-18.22-8.25c0,0-14.34,0-14.34,13.6,0,0-.24,8.49,8.5,8.49,0,0,8.5.24,8.5-8.49,0,0,0-2.43-1.7-3.4,0,0,9.47-2.2,9.47,5.09,0,0,0,10.69-15.8,10.69,0,0-16.75.24-16.75-15.54,0,0,.49-14.83,16.75-14.83,0,0,11.42-.49,18.95,4.14l-3.88-6.56-5.84-3.4-11.42.49-10.2,2.18-9.23,4.87-5.09,8.73.24,10.93,6.31,11.42,15.31,4.12,13.36-.97,11.66-7.76,3.17-9.23.24-6.32Z"/><path class="n" d="M107.68,120.45s-5.59-14.33,1.21-21.13c2.18-3.88,6.31-8.26,15.05-8.26,0,0,11.42-.49,18.95,4.14l-3.88-6.56-5.84-3.4-11.42.49-10.2,2.18-9.23,4.87-5.09,8.73.24,9.23,5.34,8.26,4.87,1.46Z"/><path class="w" d="M134.15,87.65s-31.58-4.85-33.76,16.99c0,0-1.7,15.31,15.3,19.68l2.68,2.43s-9.47.24-17.49-3.4c0,0-10.69-6.08-7.78-20.41,0,0,2.91-17.72,28.91-18.69,0,0,6.56-3.64,12.14,3.4Z"/><path class="w" d="M113.5,74.78l-7.03,2.67s3.88-8.25,16.75-8.97l5.35,1.46s-6.56.49-15.07,4.85Z"/><path class="n" d="M120.3,43.95s4.85,2.67,1.94,16.75l-3.15.24s3.4-10.2,1.21-16.99Z"/><path class="n" d="M113.25,62.4s6.81,1.46,9.96,6.08l5.35,1.46s-.24-6.81-9.47-8.99l-5.84,1.46Z"/><path class="w" d="M113.5,74.78h8.99s16.28,4.62,20.41,20.41l-8.75-7.53s-6.06-9.72-20.65-12.87Z"/><path class="n" d="M106.46,77.45s11.66,0,15.54,6.81c0,0,8.5.24,12.14,3.4,0,0-2.43-10.45-20.65-12.87l-7.03,2.67Z"/><path class="n" d="M93.82,114.61s4.14,15.78,27.21,15.78c0,0,29.15.97,28.18-21.12,0,0,0-3.15-1.7-5.59l-8.75-2.43s7.03,3.15,5.34,12.14c0,0-2.43,15.54-28.42,10.93,0,0-15.3.49-21.86-9.72Z"/><path class="w" d="M120.06,43.95s.73,15.54-6.81,18.45l5.84-1.46s5.34-5.34.97-16.99Z"/><path class="w" d="M119.09,60.94l3.15-.24s7.78,1.7,11.17,12.63l-4.12-1.46s-1.94-7.53-10.2-10.93Z"/><path class="n" d="M133.42,73.33l-4.85-3.4s-8.75-1.46-15.07,4.85h8.99s4.62-3.15,10.93-1.46Z"/><path class="i" d="M140.71,101.98s-12.14-4.61-16.77,3.65"/><path class="n" d="M120.06,43.95s.49,6.31-1.46,12.14c0,0,1.46-3.64,1.94-8.75,0,0,1.21,1.46,1.21,7.29,0,0,1.21-3.9-1.7-10.69Z"/><path class="s" d="M235.7,293.1c0-1.21-.49-1.96-1.23-2.44-1.7-1.7-5.34-1.21-5.34-1.21,0,0-9.47.97-9.96.97-.49-.49-5.59-7.52-5.59-7.52-.97-2.43-3.4-2.91-4.61-2.91h-.73l.24.73c4.37,14.57-35.23,38.13-35.47,38.37-28.18,15.54-52.47,12.87-52.71,12.87h-.24c-.24,0-24.54,2.67-52.71-12.87-.49-.24-39.84-23.8-35.47-38.37l.24-.73h-.73c-1.21,0-3.64.49-4.62,2.91,0,0-5.09,7.03-5.58,7.52-.73,0-9.96-.97-9.96-.97-.24,0-3.64-.49-5.59,1.21-.73.49-.97,1.47-.97,2.44,0,.24-.49,6.79,8.02,17.96v-.24c.24,1.21,5.11,7.28,11.66,13.6,7.29,7.03,20.16,17.24,38.87,25.98l.24.24h.24c0,.24,1.7.97,4.62,2.18,8.5,3.4,26.23,8.75,51.74,8.75s43.48-5.35,51.74-8.75c3.15-1.21,4.87-1.94,4.87-1.94,0-.24.49-.49.49-.49,35.7-16.99,50.53-39.1,50.53-39.34,7.53-9.96,8.02-16.51,8.02-17.72v-.24Z"/><path class="w" d="M235.22,293.1c0-3.9-6.08-2.93-6.08-2.93l-10.2.97-5.84-8c-.97-2.67-3.88-2.67-3.88-2.67,4.37,15.05-35.96,39.1-35.96,39.1-28.67,16.02-52.95,13.11-52.95,13.11,0,0-24.54,2.91-53.2-13.11,0,0-40.34-24.04-35.72-39.1,0,0-2.91,0-4.12,2.67l-5.59,8-10.45-.97s-5.84-.97-5.84,2.93c0,0-.49,6.55,7.78,17.72,0,0,14.34,21.86,50.29,39.1.24,0,.49.24.49.24,0,0,1.7.97,4.87,2.18,7.76,3.15,25.74,8.75,51.5,8.75s43.48-5.59,51.5-8.75c2.91-1.21,4.62-2.18,4.62-2.18.24,0,.49-.24.49-.24,36.19-17.24,50.29-39.1,50.29-39.1,8.5-11.17,8.02-17.72,8.02-17.72Z"/><path class="v" d="M229.14,290.18c-9.96,1.21-16.04-7.03-16.04-7.03.97,10.69-15.05,24.77-15.05,24.77-35.23,31.81-77.74,28.89-77.74,28.89,0,0-42.75,2.91-77.74-28.89,0,0-16.28-14.08-15.3-24.77,0,0-5.84,8.25-16.04,7.03,0,0-.97,1.46-.24,5.11v.24c.49,1.46,1.21,3.4,2.43,5.58,8.99,16.99,31.82,33.03,31.82,33.03,14.1,9.94,39.6,23.79,75.07,23.79s60.97-13.84,74.81-23.79c0,0,23.09-16.04,31.84-33.03,1.21-2.18,1.94-4.12,2.43-5.58v-.24c.97-3.65-.24-5.11-.24-5.11Z"/><path class="w" d="M47.67,320.3s-1.23-3.41-8.99-6.08c0,0-3.41-1.46-5.11-5.34,0,0-.49,8.97,10.69,14.81l3.9,1.46,1.7-1.7-2.18-3.15Z"/><path class="m" d="M47.67,320.3s-1.23-3.41-8.99-6.08c0,0-3.41-1.46-5.11-5.34,0,0-.49,8.97,10.69,14.81l3.9,1.46,1.7-1.7-2.18-3.15Z"/><path class="w" d="M53.98,324.18s-1.7-2.67-4.85-4.85c0,0-2.18-.99-2.18-2.93,0,0-.5,5.35.24,6.08,0,0-4.87-.73-7.05,1.46,0,0,4.37-.24,5.34,1.46,0,0,2.2,3.64,6.56,4.12l3.64-.24-1.7-5.09Z"/><path class="m" d="M53.98,324.18s-1.7-2.67-4.85-4.85c0,0-2.18-.99-2.18-2.93,0,0-.5,5.35.24,6.08,0,0-4.87-.73-7.05,1.46,0,0,4.37-.24,5.34,1.46,0,0,2.2,3.64,6.56,4.12l3.64-.24-1.7-5.09Z"/><path class="w" d="M62.48,329.52s-3.64-3.4-7.29-5.34c0,0-1.21-.49-1.21-3.4,0,0-1.46,4.61,0,7.03,0,0-4.85-.49-7.29,1.94,0,0,1.96-.97,5.84,2.93,0,0,4.38,4.61,9.96,2.91v-6.08Z"/><path class="m" d="M62.48,329.52s-3.64-3.4-7.29-5.34c0,0-1.21-.49-1.21-3.4,0,0-1.46,4.61,0,7.03,0,0-4.85-.49-7.29,1.94,0,0,1.96-.97,5.84,2.93,0,0,4.38,4.61,9.96,2.91v-6.08Z"/><path class="w" d="M73.41,335.11s-2.18-3.15-8.75-6.08c0,0-2.91-1.46-2.91-3.64,0,0-.73,5.34.49,7.78,0,0-3.64,0-5.84,3.4,0,0,3.17-.73,5.84,2.18,0,0,5.35,3.88,11.66,2.43l-.49-6.06Z"/><path class="m" d="M73.41,335.11s-2.18-3.15-8.75-6.08c0,0-2.91-1.46-2.91-3.64,0,0-.73,5.34.49,7.78,0,0-3.64,0-5.84,3.4,0,0,3.17-.73,5.84,2.18,0,0,5.35,3.88,11.66,2.43l-.49-6.06Z"/><path class="w" d="M83.13,338.75s-2.43-3.64-9.23-5.58c0,0-1.21-.24-1.21-2.93,0,0-1.7,5.59,1.21,8.75,0,0-4.12,0-7.29,3.64,0,0,3.41-1.21,6.56.97,0,0,6.08,3.41,11.42,1.71l1.7-3.41-3.15-3.15Z"/><path class="m" d="M83.13,338.75s-2.43-3.64-9.23-5.58c0,0-1.21-.24-1.21-2.93,0,0-1.7,5.59,1.21,8.75,0,0-4.12,0-7.29,3.64,0,0,3.41-1.21,6.56.97,0,0,6.08,3.41,11.42,1.71l1.7-3.41-3.15-3.15Z"/><path class="w" d="M93.82,341.66s-2.67-2.91-8.02-4.12c0,0-2.67,0-4.37-4.37,0,0-.97,6.55,2.91,9.46,0,0-4.12.97-6.55,4.38,0,0,3.4-1.46,6.31.49,0,0,4.87,3.4,11.42,1.21l2.44-.73,1.21-3.17-5.35-3.15Z"/><path class="m" d="M93.82,341.66s-2.67-2.91-8.02-4.12c0,0-2.67,0-4.37-4.37,0,0-.97,6.55,2.91,9.46,0,0-4.12.97-6.55,4.38,0,0,3.4-1.46,6.31.49,0,0,4.87,3.4,11.42,1.21l2.44-.73,1.21-3.17-5.35-3.15Z"/><path class="w" d="M108.89,344.08s-2.43-3.88-10.93-4.12c0,0-4.14.49-6.32-3.88,0,0,.24,7.03,5.11,9.96,0,0-5.11-.73-7.53,4.61,0,0,4.12-1.46,8.02.49,0,0,7.28,3.64,16.02-2.67l-4.37-4.38Z"/><path class="m" d="M108.89,344.08s-2.43-3.88-10.93-4.12c0,0-4.14.49-6.32-3.88,0,0,.24,7.03,5.11,9.96,0,0-5.11-.73-7.53,4.61,0,0,4.12-1.46,8.02.49,0,0,7.28,3.64,16.02-2.67l-4.37-4.38Z"/><path class="w" d="M116.17,350.65s-3.15,1.46-6.31,4.61c0,0,.49-3.15,1.21-4.37,0,0-2.43-.73-6.81,3.15,0,0,2.93-4.85,9.96-8.25l2.2,1.46-.26,3.4Z"/><path class="m" d="M116.17,350.65s-3.15,1.46-6.31,4.61c0,0,.49-3.15,1.21-4.37,0,0-2.43-.73-6.81,3.15,0,0,2.93-4.85,9.96-8.25l2.2,1.46-.26,3.4Z"/><path class="w" d="M106.46,344.08s.49,2.93,7.52,4.62l1.94-1.21-.24-2.44s-9.47-7.28-9.22-.97Z"/><path class="m" d="M106.46,344.08s.49,2.93,7.52,4.62l1.94-1.21-.24-2.44s-9.47-7.28-9.22-.97Z"/><path class="w" d="M119.33,344.57s-.97-6.79-5.11-5.09c0,0-.73.24-1.21.73,0,0,.24.73-4.85.73,0,0-2.68,0-1.7,3.15,0,0-.5-7.03,8.49,2.68l4.38-2.2Z"/><path class="m" d="M119.33,344.57s-.97-6.79-5.11-5.09c0,0-.73.24-1.21.73,0,0,.24.73-4.85.73,0,0-2.68,0-1.7,3.15,0,0-.5-7.03,8.49,2.68l4.38-2.2Z"/><path class="j" d="M112.53,348.22s-37.66-1.7-65.34-25.74"/><path class="w" d="M192.94,320.3s.97-3.41,8.75-6.08c0,0,3.4-1.46,5.11-5.34,0,0,.73,8.97-10.69,14.81l-3.9,1.46-1.7-1.7,2.43-3.15Z"/><path class="m" d="M192.94,320.3s.97-3.41,8.75-6.08c0,0,3.4-1.46,5.11-5.34,0,0,.73,8.97-10.69,14.81l-3.9,1.46-1.7-1.7,2.43-3.15Z"/><path class="w" d="M186.63,324.18s1.46-2.67,4.61-4.85c0,0,2.18-.99,2.18-2.93,0,0,.73,5.35,0,6.08,0,0,4.62-.73,6.81,1.46,0,0-4.12-.24-5.35,1.46,0,0-1.94,3.64-6.55,4.12l-3.41-.24,1.71-5.09Z"/><path class="m" d="M186.63,324.18s1.46-2.67,4.61-4.85c0,0,2.18-.99,2.18-2.93,0,0,.73,5.35,0,6.08,0,0,4.62-.73,6.81,1.46,0,0-4.12-.24-5.35,1.46,0,0-1.94,3.64-6.55,4.12l-3.41-.24,1.71-5.09Z"/><path class="w" d="M178.12,329.52s3.64-3.4,7.03-5.34c0,0,1.47-.49,1.47-3.4,0,0,1.21,4.61,0,7.03,0,0,4.85-.49,7.03,1.94,0,0-1.94-.97-5.82,2.93,0,0-4.14,4.61-9.96,2.91l.24-6.08Z"/><path class="m" d="M178.12,329.52s3.64-3.4,7.03-5.34c0,0,1.47-.49,1.47-3.4,0,0,1.21,4.61,0,7.03,0,0,4.85-.49,7.03,1.94,0,0-1.94-.97-5.82,2.93,0,0-4.14,4.61-9.96,2.91l.24-6.08Z"/><path class="w" d="M166.95,335.11s2.43-3.15,8.99-6.08c0,0,2.91-1.46,2.91-3.64,0,0,.73,5.34-.73,7.78,0,0,3.64,0,6.06,3.4,0,0-3.15-.73-6.06,2.18,0,0-5.11,3.88-11.42,2.43l.24-6.06Z"/><path class="m" d="M166.95,335.11s2.43-3.15,8.99-6.08c0,0,2.91-1.46,2.91-3.64,0,0,.73,5.34-.73,7.78,0,0,3.64,0,6.06,3.4,0,0-3.15-.73-6.06,2.18,0,0-5.11,3.88-11.42,2.43l.24-6.06Z"/><path class="w" d="M157.48,338.75s2.43-3.64,8.99-5.58c0,0,1.46-.24,1.46-2.93,0,0,1.7,5.59-1.46,8.75,0,0,4.37,0,7.28,3.64,0,0-3.15-1.21-6.55.97,0,0-5.84,3.41-11.43,1.71l-1.46-3.41,3.17-3.15Z"/><path class="m" d="M157.48,338.75s2.43-3.64,8.99-5.58c0,0,1.46-.24,1.46-2.93,0,0,1.7,5.59-1.46,8.75,0,0,4.37,0,7.28,3.64,0,0-3.15-1.21-6.55.97,0,0-5.84,3.41-11.43,1.71l-1.46-3.41,3.17-3.15Z"/><path class="w" d="M146.55,341.66s2.67-2.91,8-4.12c0,0,2.68,0,4.62-4.37,0,0,.97,6.55-2.91,9.46,0,0,4.12.97,6.31,4.38,0,0-3.4-1.46-6.06.49,0,0-5.11,3.4-11.43,1.21l-2.67-.73-.97-3.17,5.11-3.15Z"/><path class="m" d="M146.55,341.66s2.67-2.91,8-4.12c0,0,2.68,0,4.62-4.37,0,0,.97,6.55-2.91,9.46,0,0,4.12.97,6.31,4.38,0,0-3.4-1.46-6.06.49,0,0-5.11,3.4-11.43,1.21l-2.67-.73-.97-3.17,5.11-3.15Z"/><path class="w" d="M131.72,344.08s2.43-3.88,10.93-4.12c0,0,3.9.49,6.08-3.88,0,0-.24,7.03-5.11,9.96,0,0,5.35-.73,7.78,4.61,0,0-4.12-1.46-8.26.49,0,0-7.03,3.64-16.02-2.67l4.61-4.38Z"/><path class="m" d="M131.72,344.08s2.43-3.88,10.93-4.12c0,0,3.9.49,6.08-3.88,0,0-.24,7.03-5.11,9.96,0,0,5.35-.73,7.78,4.61,0,0-4.12-1.46-8.26.49,0,0-7.03,3.64-16.02-2.67l4.61-4.38Z"/><path class="w" d="M124.18,350.65s3.41,1.46,6.32,4.61c0,0-.49-3.15-.97-4.37,0,0,2.18-.73,6.56,3.15,0,0-2.93-4.85-9.72-8.25l-2.2,1.46v3.4Z"/><path class="m" d="M124.18,350.65s3.41,1.46,6.32,4.61c0,0-.49-3.15-.97-4.37,0,0,2.18-.73,6.56,3.15,0,0-2.93-4.85-9.72-8.25l-2.2,1.46v3.4Z"/><path class="w" d="M133.9,344.08s-.24,2.93-7.52,4.62l-1.96-1.21.49-2.44s9.47-7.28,8.99-.97Z"/><path class="m" d="M133.9,344.08s-.24,2.93-7.52,4.62l-1.96-1.21.49-2.44s9.47-7.28,8.99-.97Z"/><path class="w" d="M121.27,344.57s.97-6.79,5.11-5.09c0,0,.49.24.97.73,0,0,0,.73,4.85.73,0,0,2.67,0,1.7,3.15,0,0,.73-7.03-8.26,2.68l-4.37-2.2Z"/><path class="m" d="M121.27,344.57s.97-6.79,5.11-5.09c0,0,.49.24.97.73,0,0,0,.73,4.85.73,0,0,2.67,0,1.7,3.15,0,0,.73-7.03-8.26,2.68l-4.37-2.2Z"/><path class="j" d="M128.08,348.22s37.66-1.7,65.34-25.74"/><path class="w" d="M126.63,347.98c0,2.43-2.93,4.37-6.32,4.37-3.64,0-6.32-1.94-6.32-4.37s2.68-4.38,6.32-4.38c3.4,0,6.32,1.96,6.32,4.38Z"/><path class="m" d="M126.63,347.98c0,2.43-2.93,4.37-6.32,4.37-3.64,0-6.32-1.94-6.32-4.37s2.68-4.38,6.32-4.38c3.4,0,6.32,1.96,6.32,4.38Z"/><path class="w" d="M134.15,207.61s-2.18-.97-2.18-2.43l-2.67-.97-8.26-1.21-.24-.24h-1.21l-.24.24-8.26,1.21-2.67.97c0,1.46-2.2,2.43-2.2,2.43l14.1-.24,13.84.24Z"/><path class="l" d="M134.15,207.61s-2.18-.97-2.18-2.43l-2.67-.97-8.26-1.21-.24-.24h-1.21l-.24.24-8.26,1.21-2.67.97c0,1.46-2.2,2.43-2.2,2.43l14.1-.24,13.84.24Z"/><path class="w" d="M111.56,199.13s-3.15,1.7-3.15,7.03l1.46,1.46,2.43-2.43,3.64-2.91-.49-3.15h-3.88Z"/><path class="l" d="M111.56,199.13s-3.15,1.7-3.15,7.03l1.46,1.46,2.43-2.43,3.64-2.91-.49-3.15h-3.88Z"/><path class="w" d="M117.64,205.19l-2.68,2.43-2.67-2.43s0-3.88,2.67-6.06h3.17l.73,1.94-1.21,4.12Z"/><path class="l" d="M117.64,205.19l-2.68,2.43-2.67-2.43s0-3.88,2.67-6.06h3.17l.73,1.94-1.21,4.12Z"/><path class="w" d="M117.39,199.13s-.97,2.91-.97,6.06l-1.47.97-1.21-.97s-.97-3.15,1.7-6.06h1.96Z"/><path class="l" d="M117.39,199.13s-.97,2.91-.97,6.06l-1.47.97-1.21-.97s-.97-3.15,1.7-6.06h1.96Z"/><path class="l" d="M108.4,204.46s.73,1.7,1.46,1.7c0,0,1.21-.24,1.7-1.46,0,0,.49-4.37,2.43-5.58"/><path class="w" d="M129.05,199.13s2.91,1.7,2.91,7.03l-1.21,1.46-2.67-2.43-3.65-2.91.49-3.15h4.14Z"/><path class="l" d="M129.05,199.13s2.91,1.7,2.91,7.03l-1.21,1.46-2.67-2.43-3.65-2.91.49-3.15h4.14Z"/><path class="w" d="M122.73,205.19l2.67,2.43,2.68-2.43s.24-3.88-2.44-6.06h-3.4l-.73,1.94,1.21,4.12Z"/><path class="l" d="M122.73,205.19l2.67,2.43,2.68-2.43s.24-3.88-2.44-6.06h-3.4l-.73,1.94,1.21,4.12Z"/><path class="w" d="M123.21,199.13s.97,2.91.97,6.06l1.21.97,1.23-.97s.97-3.15-1.71-6.06h-1.7Z"/><path class="l" d="M123.21,199.13s.97,2.91.97,6.06l1.21.97,1.23-.97s.97-3.15-1.71-6.06h-1.7Z"/><path class="l" d="M131.96,204.46s-.49,1.7-1.46,1.7c0,0-.97-.24-1.7-1.46,0,0-.24-4.37-2.43-5.58"/><path class="w" d="M122.24,199.13h-4.12s-.49.73-.49,6.06l2.43,2.43,2.67-2.43c0-5.34-.49-6.06-.49-6.06Z"/><path class="l" d="M122.24,199.13h-4.12s-.49.73-.49,6.06l2.43,2.43,2.67-2.43c0-5.34-.49-6.06-.49-6.06Z"/><path class="w" d="M121.52,199.13h-2.67s-.24,1.94-.24,5.58l1.46,1.46,1.7-1.46c0-3.64-.24-5.58-.24-5.58Z"/><path class="l" d="M121.52,199.13h-2.67s-.24,1.94-.24,5.58l1.46,1.46,1.7-1.46c0-3.64-.24-5.58-.24-5.58Z"/><path class="w" d="M98.93,180.18l1.46,1.46,2.67,2.67,7.29.99,10.2.49s9.47.24,9.72,0c0-.24,8.02-.74,8.02-.74l3.15-4.61-.49-.49-42.02.24Z"/><path class="w" d="M104.51,183.33s-1.7-2.67-6.79-2.67c0,0,2.43.49,2.91,4.37,0,0,.97,7.78,11.66,7.78l-2.43-5.58-5.35-3.9Z"/><path class="l" d="M104.51,183.33s-1.7-2.67-6.79-2.67c0,0,2.43.49,2.91,4.37,0,0,.97,7.78,11.66,7.78l-2.43-5.58-5.35-3.9Z"/><path class="w" d="M113.5,192.8s-8.26.73-8.99-9.47l2.44-2.67,3.15,2.67,3.4,3.65v5.82Z"/><path class="l" d="M113.5,192.8s-8.26.73-8.99-9.47l2.44-2.67,3.15,2.67,3.4,3.65v5.82Z"/><path class="w" d="M116.42,183.57l-3.65-2.91-2.67,2.67s0,6.08,3.4,9.47h5.59l-2.67-9.23Z"/><path class="l" d="M116.42,183.57l-3.65-2.91-2.67,2.67s0,6.08,3.4,9.47h5.59l-2.67-9.23Z"/><path class="w" d="M117.15,192.8s-2.2-2.91-2.2-8.99l-1.94-1.46-1.94,1.94s.49,5.59,3.4,8.5h2.68Z"/><path class="l" d="M117.15,192.8s-2.2-2.91-2.2-8.99l-1.94-1.46-1.94,1.94s.49,5.59,3.4,8.5h2.68Z"/><path class="l" d="M112.53,192.8s-2.91-1.46-3.4-8.26l-2.18-2.18-1.23,1.21s.24,4.87,2.93,8.02"/><path class="l" d="M99.66,182.36s3.15,0,3.88,2.18c0,0,.49,4.87,4.62,7.78"/><path class="w" d="M136.1,183.33s1.46-2.67,6.79-2.67c0,0-2.43.49-3.15,4.37,0,0-.97,7.78-11.42,7.78l2.43-5.58,5.35-3.9Z"/><path class="l" d="M136.1,183.33s1.46-2.67,6.79-2.67c0,0-2.43.49-3.15,4.37,0,0-.97,7.78-11.42,7.78l2.43-5.58,5.35-3.9Z"/><path class="w" d="M127.11,192.8s8.25.73,8.99-9.47l-2.68-2.67-3.15,2.67-3.15,3.65v5.82Z"/><path class="l" d="M127.11,192.8s8.25.73,8.99-9.47l-2.68-2.67-3.15,2.67-3.15,3.65v5.82Z"/><path class="w" d="M123.94,183.57l3.65-2.91,2.67,2.67s.24,6.08-3.15,9.47h-5.84l2.67-9.23Z"/><path class="l" d="M123.94,183.57l3.65-2.91,2.67,2.67s.24,6.08-3.15,9.47h-5.84l2.67-9.23Z"/><path class="w" d="M123.21,192.8s2.18-2.91,2.18-8.99l2.2-1.46,1.7,1.94s-.24,5.59-3.41,8.5h-2.67Z"/><path class="l" d="M123.21,192.8s2.18-2.91,2.18-8.99l2.2-1.46,1.7,1.94s-.24,5.59-3.41,8.5h-2.67Z"/><path class="l" d="M127.84,192.8s2.91-1.46,3.4-8.26l2.18-2.18,1.21,1.21s0,4.87-2.91,8.02"/><path class="l" d="M140.71,182.36s-3.15,0-3.88,2.18c0,0-.49,4.87-4.38,7.78"/><path class="w" d="M123.94,183.57l-3.88-2.91-3.64,2.91s-.74,5.84,1.94,9.23h3.64c2.67-3.4,1.94-9.23,1.94-9.23Z"/><path class="l" d="M123.94,183.57l-3.88-2.91-3.64,2.91s-.74,5.84,1.94,9.23h3.64c2.67-3.4,1.94-9.23,1.94-9.23Z"/><rect class="w" x="111.12" y="172.81" width="18.19" height=".97"/><rect class="l" x="111.07" y="172.9" width="18.22" height=".97"/><rect class="w" x="111.12" y="178.39" width="18.19" height=".97"/><rect class="l" x="111.07" y="178.48" width="18.22" height=".73"/><rect class="w" x="111.12" y="192.7" width="18.19" height=".97"/><rect class="l" x="111.07" y="192.8" width="18.22" height=".97"/><rect class="w" x="111.6" y="198.03" width="17.46" height="1.21"/><rect class="l" x="111.56" y="198.38" width="17.25" height=".74"/><path class="w" d="M100.87,165.85c1.94.24,2.67,2.43,2.67,2.43l2.18.97,14.58-.49,14.33.49,2.44-.97s.73-2.18,2.43-2.43h-38.63Z"/><path class="l" d="M100.87,165.85c1.94.24,2.67,2.43,2.67,2.43l2.18.97,14.58-.49,14.33.49,2.44-.97s.73-2.18,2.43-2.43h-38.63Z"/><rect class="w" x="99.47" y="164.32" width="41.24" height="1.46"/><rect class="l" x="99.66" y="164.39" width="41.05" height="1.46"/><rect class="w" x="95.59" y="157.04" width="49.48" height="7.52"/><rect class="l" x="95.52" y="157.1" width="49.56" height="7.29"/><line class="l" x1="95.52" y1="158.57" x2="145.08" y2="158.57"/><line class="l" x1="95.52" y1="160.03" x2="145.08" y2="160.03"/><line class="l" x1="95.52" y1="161.48" x2="145.08" y2="161.48"/><line class="l" x1="95.52" y1="162.94" x2="145.08" y2="162.94"/><path class="w" d="M108.89,168.03l-3.17-2.18-2.18,2.43s.49,4.62,8.02,4.62l.24-2.2-2.91-2.67Z"/><path class="h" d="M108.89,168.03l-3.17-2.18-2.18,2.43s.49,4.62,8.02,4.62l.24-2.2-2.91-2.67Z"/><path class="w" d="M113.74,167.79l-2.67-1.94-2.18,2.18s.24,2.67,2.67,4.87h4.37l-2.18-5.11Z"/><path class="h" d="M113.74,167.79l-2.67-1.94-2.18,2.18s.24,2.67,2.67,4.87h4.37l-2.18-5.11Z"/><path class="w" d="M118.12,167.3l-2.2-1.46-2.18,1.94s0,3.15,1.94,5.11h3.65l-1.21-5.59Z"/><path class="h" d="M118.12,167.3l-2.2-1.46-2.18,1.94s0,3.15,1.94,5.11h3.65l-1.21-5.59Z"/><path class="w" d="M118.36,172.9s-1.21-1.71-1.21-4.87l-1.23-.97-1.21,1.21s-.24,2.91,1.71,4.62h1.94Z"/><path class="h" d="M118.36,172.9s-1.21-1.71-1.21-4.87l-1.23-.97-1.21,1.21s-.24,2.91,1.71,4.62h1.94Z"/><path class="w" d="M114.95,172.9s-1.94-1.96-1.94-4.87l-1.94-.97-1.21,1.21s0,2.43,2.43,4.62h2.67Z"/><path class="h" d="M114.95,172.9s-1.94-1.96-1.94-4.87l-1.94-.97-1.21,1.21s0,2.43,2.43,4.62h2.67Z"/><path class="h" d="M103.78,169.25l2.18-2.18,1.96,1.21s.24,2.91,3.15,4.62"/><path class="w" d="M131.72,168.03l2.91-2.18,2.2,2.43s-.24,4.62-8.02,4.62v-2.2l2.91-2.67Z"/><path class="h" d="M131.72,168.03l2.91-2.18,2.2,2.43s-.24,4.62-8.02,4.62v-2.2l2.91-2.67Z"/><path class="w" d="M126.63,167.79l2.91-1.94,2.18,2.18s-.24,2.67-2.91,4.87h-4.38l2.2-5.11Z"/><path class="h" d="M126.63,167.79l2.91-1.94,2.18,2.18s-.24,2.67-2.91,4.87h-4.38l2.2-5.11Z"/><path class="w" d="M122.49,167.3l1.94-1.46,2.2,1.94s.24,3.15-1.96,5.11h-3.64l1.46-5.59Z"/><path class="h" d="M122.49,167.3l1.94-1.46,2.2,1.94s.24,3.15-1.96,5.11h-3.64l1.46-5.59Z"/><path class="w" d="M122,172.9s1.46-1.71,1.21-4.87l1.21-.97,1.46,1.21s0,2.91-1.94,4.62h-1.94Z"/><path class="h" d="M122,172.9s1.46-1.71,1.21-4.87l1.21-.97,1.46,1.21s0,2.91-1.94,4.62h-1.94Z"/><path class="w" d="M125.4,172.9s1.96-1.96,2.2-4.87l1.7-.97,1.21,1.21s0,2.43-2.43,4.62h-2.68Z"/><path class="h" d="M125.4,172.9s1.96-1.96,2.2-4.87l1.7-.97,1.21,1.21s0,2.43-2.43,4.62h-2.68Z"/><path class="h" d="M136.59,169.25l-1.96-2.18-1.94,1.21s-.49,2.91-3.4,4.62"/><path class="w" d="M122.49,167.3l-2.43-1.46-2.18,1.46s-.24,2.67,1.21,5.59h1.94c1.7-2.93,1.46-5.59,1.46-5.59Z"/><path class="h" d="M122.49,167.3l-2.43-1.46-2.18,1.46s-.24,2.67,1.21,5.59h1.94c1.7-2.93,1.46-5.59,1.46-5.59Z"/><path class="w" d="M121.52,168.52l-1.46-1.21-1.21,1.21s-.24,1.94.73,4.38h1.21c.97-2.44.73-4.38.73-4.38Z"/><path class="h" d="M121.52,168.52l-1.46-1.21-1.21,1.21s-.24,1.94.73,4.38h1.21c.97-2.44.73-4.38.73-4.38Z"/><rect class="w" x="111.84" y="173.54" width="16.74" height="4.85"/><rect class="h" x="111.8" y="173.87" width="16.77" height="4.61"/><path class="w" d="M111.56,178.48s-2.67-.97-2.67-2.43c0-1.21,2.67-2.43,2.67-2.18h2.43v4.61h-2.43Z"/><path class="h" d="M111.56,178.48s-2.67-.97-2.67-2.43c0-1.21,2.67-2.43,2.67-2.18h2.43v4.61h-2.43Z"/><path class="w" d="M113.25,178.48s-2.43-.97-2.43-2.43c0-1.21,2.43-2.43,2.43-2.18h2.43v4.61h-2.43Z"/><path class="h" d="M113.25,178.48s-2.43-.97-2.43-2.43c0-1.21,2.43-2.43,2.43-2.18h2.43v4.61h-2.43Z"/><path class="w" d="M114.95,178.48s-2.43-.97-2.43-2.43c0-1.21,2.43-2.43,2.43-2.18h2.43v4.61h-2.43Z"/><path class="h" d="M114.95,178.48s-2.43-.97-2.43-2.43c0-1.21,2.43-2.43,2.43-2.18h2.43v4.61h-2.43Z"/><path class="w" d="M117.64,173.87c0-.24-2.68.97-2.68,2.18,0,1.46,2.68,2.43,2.68,2.43,0-1.7,2.43-2.43,2.43-2.43,0,0-2.43-.49-2.43-2.18Z"/><path class="h" d="M117.64,173.87c0-.24-2.68.97-2.68,2.18,0,1.46,2.68,2.43,2.68,2.43,0-1.7,2.43-2.43,2.43-2.43,0,0-2.43-.49-2.43-2.18Z"/><path class="w" d="M128.81,178.48s2.67-.97,2.67-2.43c0-1.21-2.67-2.43-2.67-2.18h-2.43v4.61h2.43Z"/><path class="h" d="M128.81,178.48s2.67-.97,2.67-2.43c0-1.21-2.67-2.43-2.67-2.18h-2.43v4.61h2.43Z"/><path class="w" d="M127.11,178.48s2.43-.97,2.43-2.43c0-1.21-2.43-2.43-2.43-2.18h-2.44v4.61h2.44Z"/><path class="h" d="M127.11,178.48s2.43-.97,2.43-2.43c0-1.21-2.43-2.43-2.43-2.18h-2.44v4.61h2.44Z"/><path class="w" d="M125.16,178.48s2.68-.97,2.68-2.43c0-1.21-2.68-2.43-2.68-2.18h-2.18v4.61h2.18Z"/><path class="h" d="M125.16,178.48s2.68-.97,2.68-2.43c0-1.21-2.68-2.43-2.68-2.18h-2.18v4.61h2.18Z"/><path class="w" d="M122.73,173.87c0-.24,2.67.97,2.67,2.18,0,1.46-2.67,2.43-2.67,2.43,0-1.7-2.67-2.43-2.67-2.43,0,0,2.67-.49,2.67-2.18Z"/><path class="h" d="M122.73,173.87c0-.24,2.67.97,2.67,2.18,0,1.46-2.67,2.43-2.67,2.43,0-1.7-2.67-2.43-2.67-2.43,0,0,2.67-.49,2.67-2.18Z"/><rect class="w" x="111.84" y="193.43" width="16.74" height="4.85"/><rect class="h" x="111.8" y="193.77" width="16.77" height="4.61"/><path class="w" d="M111.56,198.38s-2.67-1.21-2.67-2.43,2.67-2.43,2.67-2.18h2.43v4.61h-2.43Z"/><path class="h" d="M111.56,198.38s-2.67-1.21-2.67-2.43,2.67-2.43,2.67-2.18h2.43v4.61h-2.43Z"/><path class="w" d="M113.25,198.38s-2.43-1.21-2.43-2.43,2.43-2.43,2.43-2.18h2.43v4.61h-2.43Z"/><path class="h" d="M113.25,198.38s-2.43-1.21-2.43-2.43,2.43-2.43,2.43-2.18h2.43v4.61h-2.43Z"/><path class="w" d="M114.95,198.38s-2.43-1.21-2.43-2.43,2.43-2.43,2.43-2.18h2.43v4.61h-2.43Z"/><path class="h" d="M114.95,198.38s-2.43-1.21-2.43-2.43,2.43-2.43,2.43-2.18h2.43v4.61h-2.43Z"/><path class="w" d="M117.64,193.77c0-.24-2.68.97-2.68,2.18s2.68,2.43,2.68,2.43c0-1.7,2.43-2.43,2.43-2.43,0,0-2.43-.73-2.43-2.18Z"/><path class="h" d="M117.64,193.77c0-.24-2.68.97-2.68,2.18s2.68,2.43,2.68,2.43c0-1.7,2.43-2.43,2.43-2.43,0,0-2.43-.73-2.43-2.18Z"/><path class="w" d="M128.81,198.38s2.67-1.21,2.67-2.43-2.67-2.43-2.67-2.18h-2.43v4.61h2.43Z"/><path class="h" d="M128.81,198.38s2.67-1.21,2.67-2.43-2.67-2.43-2.67-2.18h-2.43v4.61h2.43Z"/><path class="w" d="M127.11,198.38s2.43-1.21,2.43-2.43-2.43-2.43-2.43-2.18h-2.44v4.61h2.44Z"/><path class="h" d="M127.11,198.38s2.43-1.21,2.43-2.43-2.43-2.43-2.43-2.18h-2.44v4.61h2.44Z"/><path class="w" d="M125.16,198.38s2.68-1.21,2.68-2.43-2.68-2.43-2.68-2.18h-2.18v4.61h2.18Z"/><path class="h" d="M125.16,198.38s2.68-1.21,2.68-2.43-2.68-2.43-2.68-2.18h-2.18v4.61h2.18Z"/><path class="w" d="M122.73,193.77c0-.24,2.67.97,2.67,2.18s-2.67,2.43-2.67,2.43c0-1.7-2.67-2.43-2.67-2.43,0,0,2.67-.73,2.67-2.18Z"/><path class="h" d="M122.73,193.77c0-.24,2.67.97,2.67,2.18s-2.67,2.43-2.67,2.43c0-1.7-2.67-2.43-2.67-2.43,0,0,2.67-.73,2.67-2.18Z"/><rect class="w" x="96.32" y="179.11" width="47.54" height="1.46"/><rect class="l" x="96.5" y="179.21" width="47.36" height="1.46"/><path class="w" d="M122.73,184.3l-2.67-1.94-2.43,1.94s-.24,5.35,1.7,8.5h1.7c1.94-3.15,1.7-8.5,1.7-8.5Z"/><path class="l" d="M122.73,184.3l-2.67-1.94-2.43,1.94s-.24,5.35,1.7,8.5h1.7c1.94-3.15,1.7-8.5,1.7-8.5Z"/><rect class="w" x="106.27" y="207.49" width="27.89" height="1.94"/><rect class="l" x="106.21" y="207.61" width="27.94" height="1.7"/><line class="m" x1="61.03" y1="245.98" x2="61.03" y2="273.91"/><rect class="w" x="59.45" y="244.85" width="3.64" height="2.43"/><rect class="m" x="59.33" y="244.77" width="3.4" height="2.43"/><path class="w" d="M50.34,271c.24,5.82,4.85,10.45,10.69,10.45s10.45-4.62,10.69-10.45h-21.38Z"/><path class="m" d="M50.34,271c.24,5.82,4.85,10.45,10.69,10.45s10.45-4.62,10.69-10.45h-21.38Z"/><path class="w" d="M62.73,247.2l8.99,23.8-8.99-23.8Z"/><line class="m" x1="62.73" y1="247.2" x2="71.72" y2="271"/><line class="m" x1="59.33" y1="247.2" x2="50.34" y2="271"/><path class="w" d="M77.07,234.57s-1.71-.24-.99-2.43c0,0-2.67,1.46-1.21,4.61,0,0,.49,1.46,1.7.49-.73,1.71-2.43.73-2.43.73-1.7-1.46-2.67-2.43-3.64-2.91-.24-.24-.49-.73-1.21-.97-.49,0-.97-.24-1.7-.24,0,0-4.62.24-6.08,6.81,0,0-.49,2.67-3.15,1.21,0,0,1.7.49,1.7-1.94,0,0,0-1.71-3.41-1.71,0,0-3.64-.49-4.61,3.17,0,0,1.94-1.94,4.12,1.21,0,0,1.47,2.43,4.38,2.43,0,0,3.15.73,4.12-4.61,0,0,.73-3.41,3.41-3.41,0,0,2.18-.49,4.12,2.68,0,0,.97,1.46,3.88,1.46,0,0,3.9-.24,3.9-3.9,0,0,0-2.43-2.91-2.67Z"/><path class="m" d="M77.07,234.57s-1.71-.24-.99-2.43c0,0-2.67,1.46-1.21,4.61,0,0,.49,1.46,1.7.49-.73,1.71-2.43.73-2.43.73-1.7-1.46-2.67-2.43-3.64-2.91-.24-.24-.49-.73-1.21-.97-.49,0-.97-.24-1.7-.24,0,0-4.62.24-6.08,6.81,0,0-.49,2.67-3.15,1.21,0,0,1.7.49,1.7-1.94,0,0,0-1.71-3.41-1.71,0,0-3.64-.49-4.61,3.17,0,0,1.94-1.94,4.12,1.21,0,0,1.47,2.43,4.38,2.43,0,0,3.15.73,4.12-4.61,0,0,.73-3.41,3.41-3.41,0,0,2.18-.49,4.12,2.68,0,0,.97,1.46,3.88,1.46,0,0,3.9-.24,3.9-3.9,0,0,0-2.43-2.91-2.67Z"/><line class="m" x1="103.05" y1="245.98" x2="103.05" y2="273.91"/><rect class="w" x="101.41" y="244.85" width="3.64" height="2.43"/><rect class="m" x="101.35" y="244.77" width="3.4" height="2.43"/><path class="w" d="M113.74,271c-.24,5.82-4.85,10.45-10.69,10.45s-10.45-4.62-10.45-10.45h21.13Z"/><path class="m" d="M113.74,271c-.24,5.82-4.85,10.45-10.69,10.45s-10.45-4.62-10.45-10.45h21.13Z"/><path class="w" d="M101.35,247.2l-8.75,23.8,8.75-23.8Z"/><line class="m" x1="101.35" y1="247.2" x2="92.61" y2="271"/><line class="m" x1="104.75" y1="247.2" x2="113.74" y2="271"/><path class="w" d="M87.27,234.57s1.46-.24.97-2.43c0,0,2.67,1.46,1.21,4.61,0,0-.49,1.46-1.94.49.73,1.71,2.67.73,2.67.73,1.46-1.46,2.67-2.43,3.4-2.91.24-.24.73-.73,1.21-.97h.24c.49,0,.97-.24,1.71-.24,0,0,4.61.24,5.82,6.81,0,0,.49,2.67,3.4,1.21,0,0-1.94.49-1.94-1.94,0,0,0-1.71,3.41-1.71,0,0,3.88-.49,4.61,3.17,0,0-1.7-1.94-3.88,1.21,0,0-1.7,2.43-4.38,2.43,0,0-3.15.73-4.12-4.61,0,0-.97-3.41-3.41-3.41,0,0-2.18-.49-4.37,2.68,0,0-.73,1.46-3.88,1.46,0,0-3.9-.24-3.9-3.9,0,0,0-2.43,3.17-2.67Z"/><path class="m" d="M87.27,234.57s1.46-.24.97-2.43c0,0,2.67,1.46,1.21,4.61,0,0-.49,1.46-1.94.49.73,1.71,2.67.73,2.67.73,1.46-1.46,2.67-2.43,3.4-2.91.24-.24.73-.73,1.21-.97h.24c.49,0,.97-.24,1.71-.24,0,0,4.61.24,5.82,6.81,0,0,.49,2.67,3.4,1.21,0,0-1.94.49-1.94-1.94,0,0,0-1.71,3.41-1.71,0,0,3.88-.49,4.61,3.17,0,0-1.7-1.94-3.88,1.21,0,0-1.7,2.43-4.38,2.43,0,0-3.15.73-4.12-4.61,0,0-.97-3.41-3.41-3.41,0,0-2.18-.49-4.37,2.68,0,0-.73,1.46-3.88,1.46,0,0-3.9-.24-3.9-3.9,0,0,0-2.43,3.17-2.67Z"/><path class="w" d="M86.29,283.87l-2.18-47.84c.24-2.67-.49-3.64-.49-3.64v-2.91c2.93-1.94-1.46-4.62-1.46-4.62,0,0-4.61,2.68-1.7,4.62v2.91s-.49.73-.49,3.64l-2.18,47.84s1.21,8.02,4.37,14.33c3.15-6.06,4.12-14.33,4.12-14.33Z"/><path class="m" d="M86.29,283.87l-2.18-47.84c.24-2.67-.49-3.64-.49-3.64v-2.91c2.93-1.94-1.46-4.62-1.46-4.62,0,0-4.61,2.68-1.7,4.62v2.91s-.49.73-.49,3.64l-2.18,47.84s1.21,8.02,4.37,14.33c3.15-6.06,4.12-14.33,4.12-14.33Z"/><line class="m" x1="83.62" y1="229.48" x2="80.46" y2="229.48"/><polygon class="w" points="82.16 244.77 80.71 245.01 80.95 258.37 83.13 258.37 83.62 245.01 82.16 244.77"/><polygon class="m" points="82.16 244.77 80.71 245.01 80.95 258.37 83.13 258.37 83.62 245.01 82.16 244.77"/><path class="w" d="M84.1,244.04l-1.94-.24-2.18.24s-1.7,1.21,2.18,3.15c3.64-1.94,1.94-3.15,1.94-3.15Z"/><path class="m" d="M84.1,244.04l-1.94-.24-2.18.24s-1.7,1.21,2.18,3.15c3.64-1.94,1.94-3.15,1.94-3.15Z"/><polygon class="w" points="82.16 282.66 83.62 282.41 83.13 269.06 80.95 269.06 80.71 282.41 82.16 282.66"/><polygon class="m" points="82.16 282.66 83.62 282.41 83.13 269.06 80.95 269.06 80.71 282.41 82.16 282.66"/><path class="w" d="M79.98,283.38h4.12s1.7-1.21-1.94-3.15c-3.88,1.94-2.18,3.15-2.18,3.15Z"/><path class="m" d="M79.98,283.38h4.12s1.7-1.21-1.94-3.15c-3.88,1.94-2.18,3.15-2.18,3.15Z"/><polygon class="w" points="68.81 250.35 67.84 251.56 77.55 260.8 79.25 259.1 70.02 249.38 68.81 250.35"/><polygon class="m" points="68.81 250.35 67.84 251.56 77.55 260.8 79.25 259.1 70.02 249.38 68.81 250.35"/><path class="w" d="M69.53,248.41l-1.46,1.21-1.47,1.7s-.24,2.2,3.9.74c1.21-3.9-.97-3.65-.97-3.65Z"/><path class="m" d="M69.53,248.41l-1.46,1.21-1.47,1.7s-.24,2.2,3.9.74c1.21-3.9-.97-3.65-.97-3.65Z"/><polygon class="w" points="95.52 277.06 96.25 275.85 86.54 266.63 85.07 268.33 94.3 278.03 95.52 277.06"/><polygon class="m" points="95.52 277.06 96.25 275.85 86.54 266.63 85.07 268.33 94.3 278.03 95.52 277.06"/><path class="w" d="M94.55,279.02l1.46-1.23,1.47-1.7s.24-2.18-3.65-.73c-1.46,3.9.73,3.65.73,3.65Z"/><path class="m" d="M94.55,279.02l1.46-1.23,1.47-1.7s.24-2.18-3.65-.73c-1.46,3.9.73,3.65.73,3.65Z"/><polygon class="w" points="95.52 250.35 96.25 251.56 86.54 260.8 85.07 259.1 94.3 249.38 95.52 250.35"/><polygon class="m" points="95.52 250.35 96.25 251.56 86.54 260.8 85.07 259.1 94.3 249.38 95.52 250.35"/><path class="w" d="M94.55,248.41l1.46,1.21,1.47,1.7s.24,2.2-3.65.74c-1.46-3.9.73-3.65.73-3.65Z"/><path class="m" d="M94.55,248.41l1.46,1.21,1.47,1.7s.24,2.2-3.65.74c-1.46-3.9.73-3.65.73-3.65Z"/><polygon class="w" points="68.81 277.06 67.84 275.85 77.55 266.63 79.25 268.33 70.02 278.03 68.81 277.06"/><polygon class="m" points="68.81 277.06 67.84 275.85 77.55 266.63 79.25 268.33 70.02 278.03 68.81 277.06"/><path class="w" d="M69.53,279.02l-1.46-1.23-1.47-1.7s-.24-2.18,3.9-.73c1.21,3.9-.97,3.65-.97,3.65Z"/><path class="m" d="M69.53,279.02l-1.46-1.23-1.47-1.7s-.24-2.18,3.9-.73c1.21,3.9-.97,3.65-.97,3.65Z"/><polygon class="w" points="100.87 263.71 100.87 262.25 87.51 262.49 87.51 264.92 100.87 265.16 100.87 263.71"/><polygon class="m" points="100.87 263.71 100.87 262.25 87.51 262.49 87.51 264.92 100.87 265.16 100.87 263.71"/><path class="w" d="M101.84,265.66v-3.9s-1.46-1.94-3.15,1.94c1.7,3.65,3.15,1.96,3.15,1.96Z"/><path class="m" d="M101.84,265.66v-3.9s-1.46-1.94-3.15,1.94c1.7,3.65,3.15,1.96,3.15,1.96Z"/><polygon class="w" points="63.21 263.71 63.45 265.16 76.83 264.92 76.83 262.49 63.45 262.25 63.21 263.71"/><polygon class="m" points="63.21 263.71 63.45 265.16 76.83 264.92 76.83 262.49 63.45 262.25 63.21 263.71"/><path class="w" d="M62.48,261.77l-.24,1.94.24,1.96s1.21,1.7,3.15-1.96c-1.94-3.88-3.15-1.94-3.15-1.94Z"/><path class="m" d="M62.48,261.77l-.24,1.94.24,1.96s1.21,1.7,3.15-1.96c-1.94-3.88-3.15-1.94-3.15-1.94Z"/><path class="w" d="M59.33,263.71c0,12.63,10.2,22.83,22.83,22.83s22.83-10.2,22.83-22.83-10.2-22.82-22.83-22.82-22.83,10.19-22.83,22.82ZM62.24,263.71c0-10.92,8.99-19.91,19.92-19.91s19.68,8.99,19.68,19.91-8.75,19.92-19.68,19.92-19.92-8.99-19.92-19.92Z"/><path class="m" d="M59.33,263.71c0,12.63,10.2,22.83,22.83,22.83s22.83-10.2,22.83-22.83-10.2-22.82-22.83-22.82-22.83,10.19-22.83,22.82M62.24,263.71c0-10.92,8.99-19.91,19.92-19.91s19.68,8.99,19.68,19.91-8.75,19.92-19.68,19.92-19.92-8.99-19.92-19.92Z"/><path class="w" d="M88,263.71c0,3.17-2.68,5.84-5.84,5.84s-5.84-2.67-5.84-5.84,2.68-5.82,5.84-5.82,5.84,2.67,5.84,5.82Z"/><path class="m" d="M88,263.71c0,3.17-2.68,5.84-5.84,5.84s-5.84-2.67-5.84-5.84,2.68-5.82,5.84-5.82,5.84,2.67,5.84,5.82Z"/><path class="w" d="M85.07,263.71c0,1.71-1.21,3.17-2.91,3.17s-3.15-1.46-3.15-3.17,1.46-3.15,3.15-3.15,2.91,1.46,2.91,3.15Z"/><path class="m" d="M85.07,263.71c0,1.71-1.21,3.17-2.91,3.17s-3.15-1.46-3.15-3.17,1.46-3.15,3.15-3.15,2.91,1.46,2.91,3.15Z"/><line class="m" x1="82.16" y1="298.2" x2="82.16" y2="286.54"/><path class="w" d="M82.16,232.87s-4.61,4.12,0,7.53c4.62-3.41,0-7.53,0-7.53Z"/><path class="l" d="M82.16,232.87s-4.61,4.12,0,7.53c4.62-3.41,0-7.53,0-7.53Z"/><path class="w" d="M83.62,238.45c0,.74-.73,1.47-1.46,1.47s-1.46-.73-1.46-1.47.73-1.46,1.46-1.46,1.46.73,1.46,1.46Z"/><path class="l" d="M83.62,238.45c0,.74-.73,1.47-1.46,1.47s-1.46-.73-1.46-1.47.73-1.46,1.46-1.46,1.46.73,1.46,1.46Z"/><polygon class="w" points="82.16 255.46 80.95 256.67 80.95 257.89 82.16 257.89 83.13 257.89 83.37 256.67 82.16 255.46"/><polygon class="l" points="82.16 255.46 80.95 256.67 80.95 257.89 82.16 257.89 83.13 257.89 83.37 256.67 82.16 255.46"/><polygon class="w" points="82.16 271.97 80.95 270.76 80.95 269.3 82.16 269.54 83.13 269.3 83.37 270.76 82.16 271.97"/><polygon class="l" points="82.16 271.97 80.95 270.76 80.95 269.3 82.16 269.54 83.13 269.3 83.37 270.76 82.16 271.97"/><polygon class="w" points="90.42 263.71 89.21 262.49 87.76 262.49 88 263.71 87.76 264.92 89.21 264.92 90.42 263.71"/><polygon class="l" points="90.42 263.71 89.21 262.49 87.76 262.49 88 263.71 87.76 264.92 89.21 264.92 90.42 263.71"/><polygon class="w" points="73.9 263.71 75.11 262.49 76.33 262.49 76.33 263.71 76.33 264.92 75.11 264.92 73.9 263.71"/><polygon class="l" points="73.9 263.71 75.11 262.49 76.33 262.49 76.33 263.71 76.33 264.92 75.11 264.92 73.9 263.71"/><polygon class="w" points="88 269.54 88 267.85 87.03 266.88 86.29 267.85 85.32 268.57 86.29 269.54 88 269.54"/><polygon class="l" points="88 269.54 88 267.85 87.03 266.88 86.29 267.85 85.32 268.57 86.29 269.54 88 269.54"/><polygon class="w" points="76.33 257.89 77.8 257.89 78.77 258.86 78.04 259.58 77.31 260.55 76.33 259.58 76.33 257.89"/><polygon class="l" points="76.33 257.89 77.8 257.89 78.77 258.86 78.04 259.58 77.31 260.55 76.33 259.58 76.33 257.89"/><polygon class="w" points="76.08 269.54 77.8 269.54 78.77 268.57 77.8 267.85 77.07 266.88 76.08 267.85 76.08 269.54"/><polygon class="l" points="76.08 269.54 77.8 269.54 78.77 268.57 77.8 267.85 77.07 266.88 76.08 267.85 76.08 269.54"/><polygon class="w" points="87.76 257.89 87.76 259.34 86.79 260.31 86.04 259.58 85.32 258.86 86.29 257.89 87.76 257.89"/><polygon class="l" points="87.76 257.89 87.76 259.34 86.79 260.31 86.04 259.58 85.32 258.86 86.29 257.89 87.76 257.89"/><line class="l" x1="80.46" y1="246.23" x2="81.19" y2="245.5"/><line class="l" x1="83.86" y1="246.23" x2="83.13" y2="245.5"/><line class="l" x1="80.46" y1="281.2" x2="81.19" y2="281.93"/><line class="l" x1="83.86" y1="281.2" x2="83.13" y2="281.93"/><line class="l" x1="99.66" y1="262.01" x2="100.38" y2="262.74"/><line class="l" x1="99.66" y1="265.42" x2="100.38" y2="264.68"/><line class="l" x1="64.42" y1="262.01" x2="63.94" y2="262.74"/><line class="l" x1="64.42" y1="265.42" x2="63.94" y2="264.68"/><line class="l" x1="95.76" y1="275.12" x2="95.76" y2="276.09"/><line class="l" x1="93.58" y1="277.55" x2="94.3" y2="277.55"/><line class="l" x1="70.99" y1="250.35" x2="70.02" y2="250.35"/><line class="l" x1="68.56" y1="252.55" x2="68.56" y2="251.81"/><line class="l" x1="68.32" y1="275.12" x2="68.32" y2="276.09"/><line class="l" x1="70.5" y1="277.55" x2="69.78" y2="277.55"/><line class="l" x1="93.09" y1="250.35" x2="94.06" y2="250.35"/><line class="l" x1="95.52" y1="252.55" x2="95.52" y2="251.81"/><g class="t"><path class="w" d="M168.65,232.39s-.24,4.12,3.15,6.32l8.5-16.28s-2.43-.24-2.43-7.28l-9.23,17.24Z"/><path class="w" d="M178.37,237.72s-3.41,2.2-7.05.73l8.99-16.02s1.7,1.94,7.53-1.7l-9.47,16.99Z"/><path class="m" d="M168.65,232.39s-.24,4.12,3.15,6.32l8.5-16.28s-2.43-.24-2.43-7.28l-9.23,17.24Z"/><path class="m" d="M178.37,237.72s-3.41,2.2-7.05.73l8.99-16.02s1.7,1.94,7.53-1.7l-9.47,16.99Z"/><path class="w" d="M182.49,219.03c-.49-.24-.97,0-1.21.49l-35.22,63.87c-1.47-.97-1.96-1.94-1.96-1.94l-3.4,14.57,9.47-10.93c-.97,0-1.94-.24-2.67-.73l35.22-63.87c.24-.49.24-1.21-.24-1.46Z"/><path class="m" d="M182.49,219.03c-.49-.24-.97,0-1.21.49l-35.22,63.87c-1.47-.97-1.96-1.94-1.96-1.94l-3.4,14.57,9.47-10.93c-.97,0-1.94-.24-2.67-.73l35.22-63.87c.24-.49.24-1.21-.24-1.46Z"/></g><polygon class="w" points="132.45 233.84 132.45 240.65 151.15 253.28 154.79 249.62 132.45 232.14 132.45 233.84"/><g class="u"><polygon class="m" points="132.45 232.14 166.22 258.61 160.87 259.58 188.08 284.11 149.94 257.64 155.28 256.19 132.45 240.65 132.45 233.84 132.45 232.14"/></g><path class="w" d="M182.25,263.22s.73-4.61.24-5.82c0,0-2.67-1.21-5.34-1.94-.24-.97-.73-1.94-1.21-2.91,1.46-.24,3.88.24,6.31,1.94,0,0-2.43-4.87-3.15-5.84l-3.9-.24-.97-1.94,3.17-.24s-2.93-3.64-4.14-4.12c0,0-2.43.97-4.61,2.43-.97-.49-1.94-.73-2.91-1.21.97-.97,2.91-2.18,6.06-2.43,0,0-5.09-2.18-6.06-2.44l-3.17,2.44-1.94-.73,2.18-2.68s-4.61-.73-5.82,0c0,0-1.47,2.93-2.2,5.84-.73.24-1.7.73-2.67.97,0-1.21,0-3.88,2.18-6.56,0,0-5.09,2.2-5.82,2.93l-.49,3.88-1.94.97-.26-3.4s-3.64,2.91-4.12,4.12c0,0,1.21,3.15,2.91,5.58-.49.99-.73,1.96-1.21,2.93-.97-.97-2.67-2.93-2.91-6.56,0,0-2.18,5.11-2.18,6.32l2.18,2.91-.73,1.94-2.43-1.94s-.73,4.61-.24,5.58c0,0,3.4,1.7,6.31,2.18.24.99.73,1.96.97,2.68-1.21.24-3.88.49-6.79-1.94,0,0,2.18,5.09,3.15,5.82l3.64.24.97,1.94-3.15.49s2.91,3.64,4.14,3.88c0,0,2.91-1.21,5.34-2.91.97.49,1.7.97,2.67,1.21-.73.97-2.67,2.93-6.55,3.17,0,0,5.09,2.18,6.31,2.18l2.93-2.18,1.94.73-2.18,2.43s4.85.73,5.82.24c0,0,1.7-3.15,2.18-6.08.99-.24,1.96-.73,2.68-.97.24,1.21,0,3.9-2.2,6.56,0,0,5.11-2.18,5.84-2.91l.49-3.65,1.94-.97.24,3.15s3.9-2.91,4.14-4.12c0,0-.97-2.67-2.68-5.09.5-.97.99-1.94,1.47-2.91.97,1.21,2.18,2.91,2.43,6.06,0,0,2.18-5.09,2.18-6.31l-2.18-2.93.73-1.94,2.43,2.18ZM160.14,270.51c-5.84,0-10.45-4.61-10.45-10.45s4.61-10.45,10.45-10.45,10.45,4.62,10.45,10.45-4.61,10.45-10.45,10.45Z"/><path class="m" d="M182.25,263.22s.73-4.61.24-5.82c0,0-2.67-1.21-5.34-1.94-.24-.97-.73-1.94-1.21-2.91,1.46-.24,3.88.24,6.31,1.94,0,0-2.43-4.87-3.15-5.84l-3.9-.24-.97-1.94,3.17-.24s-2.93-3.64-4.14-4.12c0,0-2.43.97-4.61,2.43-.97-.49-1.94-.73-2.91-1.21.97-.97,2.91-2.18,6.06-2.43,0,0-5.09-2.18-6.06-2.44l-3.17,2.44-1.94-.73,2.18-2.68s-4.61-.73-5.82,0c0,0-1.47,2.93-2.2,5.84-.73.24-1.7.73-2.67.97,0-1.21,0-3.88,2.18-6.56,0,0-5.09,2.2-5.82,2.93l-.49,3.88-1.94.97-.26-3.4s-3.64,2.91-4.12,4.12c0,0,1.21,3.15,2.91,5.58-.49.99-.73,1.96-1.21,2.93-.97-.97-2.67-2.93-2.91-6.56,0,0-2.18,5.11-2.18,6.32l2.18,2.91-.73,1.94-2.43-1.94s-.73,4.61-.24,5.58c0,0,3.4,1.7,6.31,2.18.24.99.73,1.96.97,2.68-1.21.24-3.88.49-6.79-1.94,0,0,2.18,5.09,3.15,5.82l3.64.24.97,1.94-3.15.49s2.91,3.64,4.14,3.88c0,0,2.91-1.21,5.34-2.91.97.49,1.7.97,2.67,1.21-.73.97-2.67,2.93-6.55,3.17,0,0,5.09,2.18,6.31,2.18l2.93-2.18,1.94.73-2.18,2.43s4.85.73,5.82.24c0,0,1.7-3.15,2.18-6.08.99-.24,1.96-.73,2.68-.97.24,1.21,0,3.9-2.2,6.56,0,0,5.11-2.18,5.84-2.91l.49-3.65,1.94-.97.24,3.15s3.9-2.91,4.14-4.12c0,0-.97-2.67-2.68-5.09.5-.97.99-1.94,1.47-2.91.97,1.21,2.18,2.91,2.43,6.06,0,0,2.18-5.09,2.18-6.31l-2.18-2.93.73-1.94,2.43,2.18M160.14,270.51c-5.84,0-10.45-4.61-10.45-10.45s4.61-10.45,10.45-10.45,10.45,4.62,10.45,10.45-4.61,10.45-10.45,10.45Z"/><path class="m" d="M173.5,260.07c0,7.29-6.06,13.11-13.36,13.11s-13.11-5.82-13.11-13.11,5.82-13.36,13.11-13.36,13.36,6.08,13.36,13.36Z"/><g class="o"><path class="w" d="M182.49,219.03c-.49-.24-.97,0-1.21.49l-35.22,63.87c-1.47-.97-1.96-1.94-1.96-1.94l-3.4,14.57,9.47-10.93c-.97,0-1.94-.24-2.67-.73l35.22-63.87c.24-.49.24-1.21-.24-1.46Z"/><path class="m" d="M182.49,219.03c-.49-.24-.97,0-1.21.49l-35.22,63.87c-1.47-.97-1.96-1.94-1.96-1.94l-3.4,14.57,9.47-10.93c-.97,0-1.94-.24-2.67-.73l35.22-63.87c.24-.49.24-1.21-.24-1.46Z"/></g><g class="r"><polygon class="w" points="132.45 232.14 166.22 258.61 160.87 259.58 188.08 284.11 149.94 257.64 155.28 256.19 132.45 240.65 132.45 233.84 132.45 232.14"/><polygon class="m" points="132.45 232.14 166.22 258.61 160.87 259.58 188.08 284.11 149.94 257.64 155.28 256.19 132.45 240.65 132.45 233.84 132.45 232.14"/></g></g></svg>